<?xml version="1.0" encoding="UTF-8"?>
<svg xmlns="http://www.w3.org/2000/svg" xmlns:xlink="http://www.w3.org/1999/xlink" width="50px" height="50px" viewBox="0 0 50 50" version="1.1">
<g id="surface1">
<path style=" stroke:none;fill-rule:nonzero;fill:rgb(0%,0%,0%);fill-opacity:1;" d="M 15.476562 5.890625 C 14.757812 6.589844 14.796875 7.609375 15.574219 8.246094 C 16.09375 8.707031 16.175781 8.886719 16.175781 9.824219 C 16.175781 10.703125 16.054688 11.042969 15.515625 11.820312 C 15.136719 12.339844 14.597656 13.296875 14.296875 13.957031 C 13.9375 14.757812 13.558594 15.277344 13.097656 15.554688 C 12.101562 16.195312 11.980469 16.652344 11.980469 20.1875 L 11.980469 23.402344 L 12.660156 24.082031 C 13.257812 24.679688 13.476562 24.761719 14.335938 24.761719 L 15.316406 24.761719 L 15.457031 25.597656 C 15.855469 28.09375 18.011719 29.613281 21.765625 30.050781 L 23.0625 30.210938 L 22.382812 30.492188 C 21.367188 30.910156 20.46875 31.667969 20.046875 32.449219 C 19.6875 33.105469 19.628906 33.148438 18.609375 33.148438 C 17.292969 33.148438 16.253906 33.566406 15.933594 34.246094 C 15.65625 34.863281 16.214844 42.59375 16.574219 43.011719 C 16.734375 43.210938 16.691406 43.429688 16.433594 43.890625 C 16.113281 44.449219 16.113281 44.507812 16.433594 45.007812 L 16.773438 45.527344 L 33.347656 45.527344 L 33.667969 45.027344 C 33.945312 44.589844 33.945312 44.488281 33.667969 43.910156 C 33.445312 43.46875 33.40625 43.191406 33.546875 42.910156 C 33.667969 42.710938 33.886719 40.816406 34.066406 38.71875 C 34.40625 34.40625 34.34375 33.984375 33.246094 33.464844 C 32.886719 33.285156 32.089844 33.148438 31.488281 33.148438 C 30.589844 33.148438 30.351562 33.066406 30.273438 32.789062 C 30.09375 32.25 28.753906 31.011719 27.855469 30.570312 L 27.058594 30.191406 L 28.054688 30.050781 C 31.828125 29.53125 33.867188 28.074219 34.265625 25.597656 L 34.40625 24.761719 L 35.382812 24.761719 C 36.242188 24.761719 36.460938 24.679688 37.0625 24.082031 L 37.738281 23.402344 L 37.738281 20.1875 C 37.738281 16.535156 37.601562 16.035156 36.460938 15.496094 C 35.921875 15.234375 35.644531 14.894531 35.203125 13.917969 C 34.902344 13.238281 34.34375 12.300781 34.003906 11.820312 C 33.445312 11.101562 33.347656 10.824219 33.347656 9.863281 C 33.347656 8.886719 33.40625 8.707031 33.945312 8.246094 C 34.425781 7.847656 34.542969 7.585938 34.542969 6.988281 C 34.542969 5.550781 32.847656 4.871094 31.847656 5.890625 C 31.148438 6.570312 31.191406 7.449219 31.949219 8.226562 C 32.347656 8.605469 32.546875 9.027344 32.546875 9.40625 C 32.546875 10.105469 32.46875 10.125 31.710938 9.464844 C 30.292969 8.285156 27.753906 7.367188 25.796875 7.328125 C 24.71875 7.289062 24.460938 7.347656 24.460938 7.585938 C 24.460938 7.808594 24.800781 7.925781 25.796875 8.027344 C 28.414062 8.285156 30.511719 9.285156 32.347656 11.164062 C 33.925781 12.757812 35.144531 14.957031 34.644531 15.234375 C 34.464844 15.335938 34.304688 15.375 34.265625 15.335938 C 34.246094 15.316406 34.003906 14.777344 33.746094 14.175781 C 33.046875 12.660156 31.070312 10.601562 29.511719 9.824219 C 28.214844 9.164062 26 8.585938 24.761719 8.585938 C 23.601562 8.585938 21.347656 9.144531 20.167969 9.722656 C 18.710938 10.421875 16.59375 12.558594 15.894531 14.015625 C 15.515625 14.816406 15.214844 15.175781 14.957031 15.175781 C 14.597656 15.175781 14.597656 15.136719 14.976562 14.277344 C 15.714844 12.558594 17.632812 10.304688 18.929688 9.605469 C 19.167969 9.484375 19.367188 9.246094 19.367188 9.085938 C 19.367188 8.605469 18.710938 8.746094 17.972656 9.386719 C 17.09375 10.125 16.972656 10.125 16.972656 9.40625 C 16.972656 9.027344 17.171875 8.605469 17.570312 8.226562 C 17.992188 7.808594 18.171875 7.429688 18.171875 6.988281 C 18.171875 6.171875 17.390625 5.390625 16.574219 5.390625 C 16.195312 5.390625 15.773438 5.570312 15.476562 5.890625 Z M 17.132812 6.429688 C 17.8125 7.109375 17.011719 8.226562 16.175781 7.789062 C 15.773438 7.585938 15.613281 6.628906 15.914062 6.328125 C 16.132812 6.109375 16.871094 6.171875 17.132812 6.429688 Z M 33.746094 6.589844 C 34.164062 7.347656 33.308594 8.1875 32.527344 7.789062 C 32.148438 7.585938 31.988281 6.609375 32.289062 6.328125 C 32.585938 6.03125 33.546875 6.191406 33.746094 6.589844 Z M 26.816406 9.683594 C 29.53125 10.261719 31.847656 12.0625 33.007812 14.515625 L 33.644531 15.875 L 33.707031 20.128906 C 33.785156 25.417969 33.625 26.335938 32.46875 27.476562 C 31.371094 28.574219 29.890625 29.09375 27.136719 29.371094 C 24.382812 29.632812 20.925781 29.351562 19.230469 28.714844 C 17.730469 28.15625 16.632812 27.117188 16.273438 25.898438 C 15.972656 24.859375 16.015625 24.820312 16.992188 25.238281 C 17.371094 25.398438 18.25 25.617188 18.949219 25.757812 C 19.648438 25.878906 20.367188 26.078125 20.566406 26.21875 C 21.304688 26.65625 21.945312 25.519531 21.265625 24.960938 C 21.027344 24.761719 20.847656 24.761719 20.386719 24.941406 C 19.667969 25.238281 18.628906 25.078125 17.132812 24.421875 L 15.972656 23.902344 L 15.972656 15.636719 L 16.59375 14.378906 C 17.773438 12.039062 20.085938 10.242188 22.625 9.683594 C 24.242188 9.324219 25.179688 9.324219 26.816406 9.683594 Z M 15.175781 19.96875 L 15.175781 23.960938 L 14.695312 24.082031 C 14.417969 24.140625 13.957031 24.0625 13.597656 23.882812 C 12.738281 23.421875 12.539062 22.542969 12.621094 19.507812 C 12.679688 16.972656 12.679688 16.933594 13.238281 16.453125 C 13.597656 16.152344 14.058594 15.972656 14.496094 15.972656 L 15.175781 15.972656 Z M 36.480469 16.453125 C 37.039062 16.933594 37.039062 16.972656 37.101562 19.507812 C 37.179688 22.542969 36.980469 23.421875 36.121094 23.882812 C 35.761719 24.0625 35.304688 24.140625 35.023438 24.082031 L 34.542969 23.960938 L 34.542969 20.085938 C 34.542969 17.972656 34.605469 16.175781 34.683594 16.113281 C 34.964844 15.816406 35.960938 15.996094 36.480469 16.453125 Z M 26.359375 30.632812 C 26.359375 31.191406 25.578125 31.949219 25.019531 31.949219 C 24.441406 31.949219 23.761719 31.289062 23.761719 30.691406 C 23.761719 30.273438 23.84375 30.25 25.058594 30.25 C 26.21875 30.25 26.359375 30.292969 26.359375 30.632812 Z M 23.324219 31.730469 C 23.921875 32.566406 24.921875 32.847656 25.839844 32.46875 C 26.238281 32.308594 26.65625 31.949219 26.796875 31.667969 C 26.917969 31.371094 27.097656 31.148438 27.195312 31.148438 C 27.597656 31.148438 28.535156 31.769531 29.054688 32.386719 L 29.613281 33.046875 L 25.160156 33.105469 C 22.703125 33.128906 20.667969 33.105469 20.605469 33.046875 C 20.386719 32.828125 22.304688 31.148438 22.785156 31.148438 C 22.84375 31.148438 23.082031 31.410156 23.324219 31.730469 Z M 33.246094 34.34375 C 33.605469 34.722656 33.605469 34.925781 33.308594 38.679688 C 33.007812 42.3125 32.949219 42.652344 32.546875 42.972656 C 32.148438 43.3125 31.550781 43.332031 25.058594 43.332031 C 18.449219 43.332031 17.992188 43.3125 17.550781 42.953125 C 17.113281 42.613281 17.074219 42.332031 16.773438 38.757812 C 16.472656 35.023438 16.511719 34.464844 17.050781 34.105469 C 17.171875 34.027344 20.785156 33.945312 25.078125 33.945312 C 32.648438 33.945312 32.886719 33.964844 33.246094 34.34375 Z M 32.949219 44.429688 C 32.949219 44.6875 31.847656 44.726562 25.078125 44.726562 C 20.746094 44.726562 17.152344 44.648438 17.09375 44.546875 C 17.03125 44.46875 17.03125 44.328125 17.113281 44.25 C 17.191406 44.1875 20.785156 44.128906 25.101562 44.128906 C 31.847656 44.148438 32.949219 44.1875 32.949219 44.429688 Z M 32.949219 44.429688 "/>
<path style=" stroke:none;fill-rule:nonzero;fill:rgb(0%,0%,0%);fill-opacity:1;" d="M 19.070312 16.453125 C 18.332031 16.792969 17.472656 17.691406 17.191406 18.429688 C 16.851562 19.289062 16.933594 20.964844 17.351562 21.886719 C 17.550781 22.34375 18.03125 22.921875 18.390625 23.183594 C 19.070312 23.664062 19.070312 23.664062 24.761719 23.664062 C 30.410156 23.664062 30.453125 23.664062 31.109375 23.203125 C 31.46875 22.941406 31.929688 22.382812 32.148438 21.964844 C 32.628906 21.046875 32.6875 19.269531 32.269531 18.3125 C 31.949219 17.53125 31.050781 16.671875 30.292969 16.394531 C 29.414062 16.054688 19.828125 16.113281 19.070312 16.453125 Z M 21.207031 19.109375 C 21.40625 19.289062 21.566406 19.707031 21.566406 20.085938 C 21.566406 21.226562 20.1875 21.785156 19.367188 20.964844 C 18.171875 19.769531 19.949219 17.972656 21.207031 19.109375 Z M 30.191406 19.109375 C 30.992188 19.828125 30.351562 21.367188 29.253906 21.367188 C 28.175781 21.367188 27.554688 19.949219 28.292969 19.128906 C 28.695312 18.691406 29.691406 18.671875 30.191406 19.109375 Z M 26.457031 21.207031 C 26.378906 21.464844 26.097656 21.863281 25.839844 22.105469 C 24.921875 22.941406 23.601562 22.5625 23.203125 21.367188 L 22.984375 20.765625 L 24.78125 20.765625 C 26.558594 20.765625 26.578125 20.765625 26.457031 21.207031 Z M 26.457031 21.207031 "/>
<path style=" stroke:none;fill-rule:nonzero;fill:rgb(0%,0%,0%);fill-opacity:1;" d="M 19.609375 19.410156 C 19.050781 19.96875 19.46875 20.964844 20.265625 20.964844 C 20.507812 20.964844 20.785156 20.867188 20.925781 20.726562 C 21.066406 20.585938 21.167969 20.308594 21.167969 20.066406 C 21.167969 19.828125 21.066406 19.546875 20.925781 19.410156 C 20.785156 19.269531 20.507812 19.167969 20.265625 19.167969 C 20.027344 19.167969 19.75 19.269531 19.609375 19.410156 Z M 19.609375 19.410156 "/>
<path style=" stroke:none;fill-rule:nonzero;fill:rgb(0%,0%,0%);fill-opacity:1;" d="M 28.792969 19.289062 C 27.875 19.929688 28.472656 21.207031 29.511719 20.847656 C 30.191406 20.605469 30.273438 19.667969 29.652344 19.25 C 29.292969 19.007812 29.171875 19.03125 28.792969 19.289062 Z M 28.792969 19.289062 "/>
<path style=" stroke:none;fill-rule:nonzero;fill:rgb(0%,0%,0%);fill-opacity:1;" d="M 24.242188 36.941406 C 23.0625 37.421875 22.804688 39.015625 23.742188 39.957031 C 24.5625 40.753906 25.558594 40.753906 26.378906 39.957031 C 27.835938 38.476562 26.199219 36.140625 24.242188 36.941406 Z M 25.796875 37.878906 C 26.558594 38.558594 26.039062 39.738281 24.980469 39.738281 C 24.300781 39.738281 23.960938 39.398438 23.960938 38.71875 C 23.960938 37.679688 25.039062 37.179688 25.796875 37.878906 Z M 25.796875 37.878906 "/>
<path style=" stroke:none;fill-rule:nonzero;fill:rgb(0%,0%,0%);fill-opacity:1;" d="M 21.324219 7.707031 C 20.808594 7.867188 20.328125 8.085938 20.246094 8.207031 C 19.96875 8.6875 20.527344 8.746094 21.804688 8.386719 C 23.363281 7.96875 23.621094 7.828125 23.460938 7.566406 C 23.28125 7.308594 22.425781 7.367188 21.324219 7.707031 Z M 21.324219 7.707031 "/>
</g>
</svg>
